<svg width="20" height="19" viewBox="0 0 20 19" fill="none" xmlns="http://www.w3.org/2000/svg">
<path fill-rule="evenodd" clip-rule="evenodd" d="M17.5 1.24241H2.5C2.16848 1.24241 1.85054 1.3733 1.61612 1.6063C1.3817 1.8393 1.25 2.15531 1.25 2.48481V16.8793L3.75 14.3945C4.21873 13.9285 4.85451 13.6666 5.5175 13.6665H17.5C17.8315 13.6665 18.1495 13.5356 18.3839 13.3026C18.6183 13.0696 18.75 12.7536 18.75 12.4241V2.48481C18.75 2.15531 18.6183 1.8393 18.3839 1.6063C18.1495 1.3733 17.8315 1.24241 17.5 1.24241ZM2.5 0C1.83696 0 1.20107 0.261792 0.732233 0.727785C0.263392 1.19378 0 1.8258 0 2.48481L0 18.3789C2.62686e-05 18.5018 0.0367407 18.622 0.105497 18.7242C0.174252 18.8263 0.271959 18.9059 0.386249 18.9529C0.50054 18.9998 0.626276 19.012 0.747545 18.9879C0.868814 18.9638 0.980163 18.9045 1.0675 18.8175L4.63375 15.2729C4.86812 15.0399 5.18601 14.909 5.5175 14.9089H17.5C18.163 14.9089 18.7989 14.6471 19.2678 14.1811C19.7366 13.7151 20 13.0831 20 12.4241V2.48481C20 1.8258 19.7366 1.19378 19.2678 0.727785C18.7989 0.261792 18.163 0 17.5 0L2.5 0Z" fill="black" fill-opacity="0.7"/>
</svg>
