<svg width="24" height="24" viewBox="0 0 24 24" fill="none" xmlns="http://www.w3.org/2000/svg">
<g clip-path="url(#clip0_3817_1455)">
<path fill-rule="evenodd" clip-rule="evenodd" d="M20.5031 9.16607C20.2021 9.05999 19.9428 8.86069 19.7629 8.59713C19.5829 8.33358 19.4918 8.01951 19.5026 7.70057L19.5056 7.49657C19.5056 6.36895 19.1878 5.26415 18.5887 4.30885C17.9896 3.35354 17.1334 2.5864 16.1183 2.09537C15.1032 1.60433 13.9703 1.4093 12.8494 1.53261C11.7286 1.65593 10.6651 2.0926 9.78106 2.79257C9.61387 2.92502 9.42036 3.02029 9.21343 3.07203C9.0065 3.12376 8.79092 3.13076 8.58107 3.09257C7.34931 2.86743 6.07797 3.03329 4.94521 3.56693C3.81245 4.10057 2.87502 4.97523 2.26429 6.06836C1.65356 7.16148 1.40013 8.4183 1.53952 9.66268C1.67891 10.9071 2.20412 12.0767 3.04156 13.0076C3.22154 13.2077 3.34436 13.4525 3.39714 13.7165C3.44993 13.9804 3.43073 14.2536 3.34156 14.5076C2.88532 15.8026 2.88704 17.2149 3.34644 18.5088C3.80584 19.8027 4.69512 20.8999 5.86585 21.6173C7.03659 22.3346 8.41795 22.6288 9.77937 22.4506C11.1408 22.2723 12.3999 21.6326 13.3466 20.6381C13.5867 20.3865 13.9069 20.2262 14.2522 20.1846C14.5975 20.143 14.9465 20.2227 15.2396 20.4101C15.8937 20.8279 16.6614 21.0325 17.4367 20.9956C18.2121 20.9587 18.9568 20.682 19.5683 20.2039C20.1798 19.7258 20.6278 19.0697 20.8506 18.3261C21.0733 17.5825 21.0599 16.7882 20.8121 16.0526C20.7124 15.7557 20.7081 15.4351 20.7999 15.1357C20.8916 14.8363 21.0747 14.5731 21.3236 14.3831C21.7539 14.0549 22.0876 13.6165 22.2891 13.1143C22.4907 12.612 22.5527 12.0646 22.4687 11.53C22.3846 10.9953 22.1575 10.4934 21.8115 10.0773C21.4655 9.66112 21.0134 9.34629 20.5031 9.16607ZM21.0056 7.49657C21.0056 7.58207 21.0056 7.66607 21.0011 7.75157C21.7665 8.02159 22.4448 8.49355 22.9639 9.1175C23.4831 9.74144 23.8239 10.4942 23.9503 11.296C24.0766 12.0978 23.9838 12.9188 23.6817 13.6722C23.3796 14.4256 22.8794 15.0832 22.2341 15.5756C22.5801 16.6052 22.5982 17.7168 22.2859 18.7572C21.9736 19.7976 21.3464 20.7155 20.4905 21.3844C19.6347 22.0533 18.5924 22.4403 17.5074 22.492C16.4225 22.5437 15.3481 22.2576 14.4326 21.6731C13.2489 22.9149 11.6753 23.7135 9.97414 23.9355C8.27297 24.1575 6.54711 23.7896 5.08438 22.8932C3.62166 21.9967 2.51049 20.6258 1.9362 19.0092C1.36191 17.3926 1.35922 15.6279 1.92857 14.0096C0.882505 12.8461 0.22651 11.3846 0.052432 9.82968C-0.121646 8.27479 0.194912 6.70439 0.957778 5.33838C1.72065 3.97236 2.89162 2.87912 4.30675 2.21174C5.72187 1.54436 7.31028 1.33626 8.84956 1.61657C9.95464 0.741498 11.284 0.195559 12.6851 0.0413551C14.0862 -0.112849 15.5025 0.130925 16.7714 0.744726C18.0403 1.35853 19.1106 2.31751 19.8595 3.51171C20.6084 4.7059 21.0056 6.08698 21.0056 7.49657Z" fill="black"/>
<path d="M12 16.5C14.4853 16.5 16.5 14.4853 16.5 12C16.5 9.51472 14.4853 7.5 12 7.5C9.51472 7.5 7.5 9.51472 7.5 12C7.5 14.4853 9.51472 16.5 12 16.5Z" fill="black"/>
</g>
<defs>
<clipPath id="clip0_3817_1455">
<rect width="24" height="24" fill="white"/>
</clipPath>
</defs>
</svg>
