<svg version="1.1" id="Layer_1" xmlns="http://www.w3.org/2000/svg" xmlns:xlink="http://www.w3.org/1999/xlink" x="0px" y="0px"
	 width="100%" viewBox="0 0 3088 709" enable-background="new 0 0 3088 709" xml:space="preserve">
<path fill="#FFFFFF" opacity="1.000000" stroke="none" 
	d="
M2064.000000,710.000000 
	C1376.000000,710.000000 688.500000,710.000000 1.000000,710.000000 
	C1.000000,473.666656 1.000000,237.333328 1.000000,1.000000 
	C1030.333374,1.000000 2059.666748,1.000000 3089.000000,1.000000 
	C3089.000000,237.333328 3089.000000,473.666656 3089.000000,710.000000 
	C2747.500000,710.000000 2406.000000,710.000000 2064.000000,710.000000 
M2516.000000,284.420410 
	C2516.000000,287.419403 2516.000000,290.418396 2516.000000,293.762695 
	C2514.548340,293.123444 2513.252441,292.607788 2512.004150,291.994629 
	C2492.456543,282.393524 2471.555176,277.481659 2450.044922,276.223297 
	C2431.857422,275.159363 2413.660156,275.925110 2395.549072,279.780884 
	C2374.119629,284.343231 2354.469238,292.804321 2336.307129,304.504395 
	C2321.106445,314.296814 2308.041992,326.773407 2297.086914,341.356537 
	C2286.367188,355.626343 2277.641113,371.043335 2272.185303,387.947723 
	C2265.470703,408.752289 2262.855957,430.175140 2263.772461,452.227325 
	C2264.577148,471.588104 2267.931396,490.138458 2274.615723,508.262177 
	C2281.287354,526.352173 2291.145508,542.573730 2303.675293,556.995972 
	C2321.239014,577.212524 2342.626953,592.292358 2367.625000,602.308411 
	C2387.255615,610.173889 2407.629883,614.048157 2428.612061,614.898865 
	C2436.004639,615.198608 2443.441650,614.249207 2450.863037,614.017761 
	C2466.057129,613.544006 2480.696289,610.144531 2495.021973,605.403259 
	C2502.057373,603.074707 2508.818848,599.918823 2516.168945,596.949707 
	C2516.168945,602.205505 2516.168945,606.975403 2516.168945,611.736328 
	C2548.592529,611.736328 2580.663818,611.736328 2612.736816,611.736328 
	C2612.736816,450.070770 2612.736816,288.669067 2612.736816,127.266556 
	C2580.401611,127.266556 2548.330322,127.266556 2516.000000,127.266556 
	C2516.000000,179.503265 2516.000000,231.473846 2516.000000,284.420410 
M2228.268066,127.057709 
	C2196.199463,127.057709 2164.130859,127.057709 2131.706543,127.057709 
	C2131.706543,182.763351 2131.706543,237.801102 2131.706543,293.094482 
	C2130.864502,292.805878 2130.399902,292.704529 2129.989014,292.497559 
	C2110.234619,282.549561 2089.030762,277.509644 2067.204590,276.277344 
	C2052.958984,275.473053 2038.534424,276.966766 2024.241943,278.092163 
	C2007.380371,279.419891 1991.588135,284.861908 1976.291382,291.942291 
	C1953.786865,302.358856 1934.412354,316.742950 1918.530151,335.896484 
	C1905.627441,351.456635 1895.520264,368.665619 1889.253540,387.758545 
	C1882.439331,408.520386 1879.922607,429.958282 1880.750732,452.007782 
	C1881.466309,471.061676 1884.660278,489.395111 1891.092041,507.187103 
	C1897.790039,525.715637 1907.886597,542.429443 1920.841309,557.190491 
	C1938.390747,577.186890 1959.568970,592.183838 1984.409424,602.182373 
	C2003.883667,610.020935 2024.063843,613.886841 2044.842896,614.882690 
	C2052.891846,615.268433 2061.034912,614.663879 2069.078613,613.908997 
	C2077.471924,613.121216 2085.994629,612.364075 2094.106445,610.239807 
	C2106.914062,606.885803 2119.426025,602.401611 2132.130859,598.374329 
	C2132.130859,602.227722 2132.130859,606.966125 2132.130859,611.764099 
	C2164.544922,611.764099 2196.611816,611.764099 2229.000000,611.764099 
	C2229.000000,609.734680 2229.000000,607.936829 2229.000000,606.138977 
	C2229.000000,511.826874 2229.006836,417.514771 2228.997314,323.202667 
	C2228.990967,258.051147 2228.962402,192.899628 2228.268066,127.057709 
M1145.999268,509.446442 
	C1146.337402,510.343567 1146.655151,511.249054 1147.016968,512.136597 
	C1153.778320,528.724182 1163.114990,543.817810 1174.875122,557.220276 
	C1192.429199,577.226074 1213.627075,592.200623 1238.457520,602.224121 
	C1257.299927,609.830505 1276.846313,613.862244 1296.924683,614.782471 
	C1308.536987,615.314575 1320.267944,613.899475 1331.911743,612.947021 
	C1348.598755,611.581970 1364.442383,606.803711 1379.682495,600.012939 
	C1405.295776,588.599976 1426.745972,571.976074 1443.952759,549.668457 
	C1466.200073,520.825989 1476.606201,487.904053 1477.769653,452.017914 
	C1478.197754,438.816895 1476.311890,425.498108 1474.919556,412.292236 
	C1473.388916,397.774384 1468.542725,384.087982 1462.391113,370.956848 
	C1452.326294,349.472870 1438.510132,330.809814 1420.132446,315.529755 
	C1405.206543,303.119629 1388.734985,293.653717 1370.587646,286.877136 
	C1355.949097,281.410767 1340.927124,278.267853 1325.341064,276.827301 
	C1307.978638,275.222504 1290.640015,275.132263 1273.661499,278.428192 
	C1260.526245,280.978058 1247.672852,285.477570 1235.062134,290.111725 
	C1217.287842,296.643433 1201.521240,306.925842 1187.837891,319.922821 
	C1179.656494,327.693817 1172.133667,336.337982 1165.369629,345.378784 
	C1155.324585,358.805023 1147.202026,373.478607 1143.058716,389.907532 
	C1140.305054,400.826660 1137.949097,411.876434 1136.092163,422.980988 
	C1134.799805,430.708344 1134.158081,438.627167 1134.145508,446.461914 
	C1134.133789,453.794342 1135.304810,461.131378 1136.005615,468.461639 
	C1137.332886,482.346588 1140.453735,495.792328 1145.999268,509.446442 
M1552.997192,560.495605 
	C1569.612427,578.704773 1589.645264,591.793823 1612.403442,601.148682 
	C1631.822754,609.131165 1652.040649,612.865784 1672.815552,613.886658 
	C1680.363159,614.257568 1687.972046,613.247253 1695.557495,613.019043 
	C1709.926636,612.586670 1723.824707,609.634338 1737.412354,605.169922 
	C1769.893555,594.497864 1796.801880,575.982849 1817.830688,548.783081 
	C1840.442139,519.536194 1850.558716,486.147766 1851.911865,449.729279 
	C1852.186646,442.336121 1851.715454,434.859070 1850.906006,427.495697 
	C1849.825806,417.670593 1848.806274,407.739716 1846.451660,398.176575 
	C1842.683594,382.873077 1836.591309,368.388336 1828.403809,354.803955 
	C1818.334839,338.098114 1805.917236,323.391632 1790.632202,311.376801 
	C1777.568970,301.108459 1763.082275,293.081909 1747.569336,286.886017 
	C1730.286011,279.982971 1712.304932,275.964539 1693.870239,275.240448 
	C1679.924438,274.692688 1665.869873,276.026550 1651.905518,277.078430 
	C1635.685181,278.300232 1620.358643,283.401337 1605.712646,290.132141 
	C1580.800903,301.580658 1559.421631,317.650909 1542.672607,339.704376 
	C1531.662476,354.201294 1522.782593,369.843994 1517.169922,387.045776 
	C1510.384766,407.841003 1507.918579,429.272034 1508.771973,451.306061 
	C1509.515503,470.508636 1512.742920,488.973877 1519.443237,506.872803 
	C1526.892944,526.773743 1537.898071,544.513977 1552.997192,560.495605 
M927.495728,362.000000 
	C932.263184,362.000000 937.030640,362.000000 942.176270,362.000000 
	C942.176270,445.308990 942.176270,528.044739 942.176270,610.711548 
	C974.643860,610.711548 1006.714722,610.711548 1039.179443,610.711548 
	C1039.179443,527.687988 1039.179443,444.952209 1039.179443,361.818787 
	C1065.979736,361.818787 1092.386353,361.818787 1118.706909,361.818787 
	C1118.706909,334.680389 1118.706909,307.942535 1118.706909,280.807861 
	C1092.009155,280.807861 1065.602539,280.807861 1039.999390,280.807861 
	C1039.999390,268.182404 1039.094360,255.881775 1040.213257,243.768082 
	C1041.855225,225.989670 1060.739258,212.300598 1078.453857,215.061035 
	C1085.874268,216.217346 1093.205444,217.947357 1101.268555,219.554352 
	C1111.731201,193.881836 1122.399292,167.705109 1133.238403,141.108627 
	C1131.379883,140.328751 1129.825928,139.507599 1128.174561,139.009125 
	C1104.228394,131.780853 1079.781860,129.666107 1054.823486,130.819687 
	C1042.520264,131.388306 1030.487305,132.930496 1018.680054,136.065704 
	C996.289673,142.011154 977.711426,154.022751 964.077698,172.870422 
	C948.457947,194.463623 942.924622,219.351913 942.065552,245.474396 
	C941.679016,257.228241 942.000000,269.005371 942.000000,281.163239 
	C922.038513,281.163239 902.630554,281.163239 883.284302,281.163239 
	C883.284302,308.301910 883.284302,335.039703 883.284302,362.000000 
	C897.877258,362.000000 912.187012,362.000000 927.495728,362.000000 
M305.047638,77.434280 
	C290.197876,90.962067 275.535950,104.703934 260.438110,117.948929 
	C248.664627,128.277557 236.881729,138.734802 224.159256,147.812149 
	C200.619812,164.607330 177.239319,181.365707 157.985626,203.310699 
	C147.121445,215.693466 137.348129,228.733871 129.444458,243.130234 
	C114.807549,269.791016 107.540970,298.614960 106.192734,328.809937 
	C105.674194,340.423157 106.600357,352.238861 108.219627,363.772583 
	C110.007874,376.509888 112.812126,389.172974 116.150093,401.606293 
	C119.985962,415.894226 125.752815,429.495667 133.577972,442.182678 
	C141.077682,454.342010 150.095947,465.202850 160.993027,474.362518 
	C168.424866,480.609436 176.078476,486.736481 184.270157,491.907684 
	C206.568222,505.984009 229.710464,518.775330 251.542877,533.520081 
	C268.201294,544.770386 283.853210,557.669922 299.057495,570.867371 
	C312.702911,582.711670 325.285797,595.805054 338.049774,608.633545 
	C353.439453,624.100952 369.559296,638.588806 388.356842,649.895691 
	C406.628082,660.886108 425.801025,669.899475 446.556274,674.838135 
	C457.552795,677.454773 468.917450,679.190186 480.196320,679.776672 
	C492.729095,680.428406 505.590820,680.710266 517.875793,678.613342 
	C532.176697,676.172363 546.341858,671.870056 559.963013,666.766418 
	C579.655457,659.388062 597.223572,648.440491 611.415833,632.305359 
	C621.681885,620.633789 629.528931,607.548584 636.978027,594.107849 
	C644.051208,581.345398 650.559998,568.245483 658.136597,555.792725 
	C668.557739,538.664551 681.777222,523.929077 698.232056,512.177795 
	C708.122192,505.114777 718.062927,498.018097 727.234314,490.074585 
	C747.634888,472.405182 762.082581,450.369812 772.790894,425.698578 
	C782.115540,404.215088 786.580322,381.644257 787.868958,358.462921 
	C788.642273,344.550903 787.039551,330.681885 784.025452,317.009003 
	C778.503113,291.957245 767.191406,269.734283 750.655884,250.315964 
	C738.674072,236.245361 723.772034,225.268097 709.200928,214.046509 
	C694.694702,202.874924 679.513245,192.523712 665.540039,180.731812 
	C650.669373,168.182571 636.522766,154.712112 622.741455,140.960846 
	C615.410645,133.645981 609.377625,124.997185 603.015747,116.752243 
	C593.311279,104.175308 584.556824,90.782280 574.055298,78.925949 
	C562.811646,66.231735 548.960938,56.374954 534.311951,47.584026 
	C508.019073,31.805489 479.433960,24.373541 449.134888,23.106611 
	C433.907959,22.469912 418.903961,25.070465 403.912079,27.858913 
	C378.203918,32.640560 354.830597,42.986969 332.936310,56.770802 
	C323.377899,62.788399 314.717316,70.232140 305.047638,77.434280 
M2984.000000,322.500000 
	C2984.000000,308.736847 2984.000000,294.973663 2984.000000,280.818024 
	C2970.685547,280.818024 2957.943115,280.818024 2944.812012,280.818024 
	C2944.812012,249.346878 2944.812012,218.274414 2944.812012,187.295609 
	C2912.341309,187.295609 2880.270508,187.295609 2847.803223,187.295609 
	C2847.803223,218.661957 2847.803223,249.734421 2847.803223,281.201965 
	C2830.665527,281.201965 2813.923584,281.201965 2797.303711,281.201965 
	C2797.303711,308.340942 2797.303711,335.078735 2797.303711,362.213562 
	C2814.346436,362.213562 2831.088135,362.213562 2848.215576,362.213562 
	C2848.215576,446.015045 2848.215576,529.416931 2848.215576,613.398315 
	C2880.292236,613.398315 2911.975098,613.398315 2944.607910,613.398315 
	C2944.607910,529.862061 2944.607910,446.043884 2944.607910,361.829529 
	C2958.302734,361.829529 2971.045654,361.829529 2984.000000,361.829529 
	C2984.000000,348.786865 2984.000000,336.143433 2984.000000,322.500000 
M2757.000000,471.500000 
	C2757.000000,408.074097 2757.000000,344.648193 2757.000000,281.287415 
	C2724.358398,281.287415 2692.287354,281.287415 2660.285156,281.287415 
	C2660.285156,391.308899 2660.285156,501.042786 2660.285156,610.712524 
	C2692.641846,610.712524 2724.712646,610.712524 2757.000000,610.712524 
	C2757.000000,564.450317 2757.000000,518.475159 2757.000000,471.500000 
M2670.979980,138.522354 
	C2662.872070,143.959000 2657.875000,151.885056 2654.066650,160.534119 
	C2649.329346,171.292282 2647.987305,182.496796 2649.902344,194.271851 
	C2652.541260,210.500244 2660.423096,223.233307 2673.431152,233.060120 
	C2687.602295,243.765778 2703.560059,245.992264 2720.533691,242.967102 
	C2738.821533,239.707703 2752.155273,229.200790 2760.853027,213.181381 
	C2766.807861,202.213318 2768.670166,190.325546 2767.183105,177.589508 
	C2765.141602,160.110336 2756.845703,146.859055 2743.076660,136.564407 
	C2731.469482,127.885986 2718.174072,125.272896 2704.039551,126.025284 
	C2691.993164,126.666512 2681.027100,130.425262 2670.979980,138.522354 
z"/>
<path fill="#000000" opacity="1.000000" stroke="none" 
	d="
M2516.000000,283.932434 
	C2516.000000,231.473846 2516.000000,179.503265 2516.000000,127.266556 
	C2548.330322,127.266556 2580.401611,127.266556 2612.736816,127.266556 
	C2612.736816,288.669067 2612.736816,450.070770 2612.736816,611.736328 
	C2580.663818,611.736328 2548.592529,611.736328 2516.168945,611.736328 
	C2516.168945,606.975403 2516.168945,602.205505 2516.168945,596.949707 
	C2508.818848,599.918823 2502.057373,603.074707 2495.021973,605.403259 
	C2480.696289,610.144531 2466.057129,613.544006 2450.863037,614.017761 
	C2443.441650,614.249207 2436.004639,615.198608 2428.612061,614.898865 
	C2407.629883,614.048157 2387.255615,610.173889 2367.625000,602.308411 
	C2342.626953,592.292358 2321.239014,577.212524 2303.675293,556.995972 
	C2291.145508,542.573730 2281.287354,526.352173 2274.615723,508.262177 
	C2267.931396,490.138458 2264.577148,471.588104 2263.772461,452.227325 
	C2262.855957,430.175140 2265.470703,408.752289 2272.185303,387.947723 
	C2277.641113,371.043335 2286.367188,355.626343 2297.086914,341.356537 
	C2308.041992,326.773407 2321.106445,314.296814 2336.307129,304.504395 
	C2354.469238,292.804321 2374.119629,284.343231 2395.549072,279.780884 
	C2413.660156,275.925110 2431.857422,275.159363 2450.044922,276.223297 
	C2471.555176,277.481659 2492.456543,282.393524 2512.004150,291.994629 
	C2513.252441,292.607788 2514.548340,293.123444 2516.000000,293.762695 
	C2516.000000,290.418396 2516.000000,287.419403 2516.000000,283.932434 
M2356.002197,449.225159 
	C2356.668457,454.051788 2357.198242,458.901886 2358.025391,463.700806 
	C2360.914062,480.465790 2367.656494,495.587738 2379.482178,507.813293 
	C2398.686035,527.666443 2422.505859,534.354004 2449.497559,529.963562 
	C2474.573975,525.884705 2492.352539,511.331207 2503.750244,489.329529 
	C2512.818848,471.824188 2515.485840,452.934967 2513.184082,433.080414 
	C2511.050781,414.677551 2504.913818,398.150146 2492.725830,384.448639 
	C2473.924561,363.312561 2449.577637,355.686188 2422.130127,360.236603 
	C2396.027100,364.564209 2376.935791,379.675812 2365.301758,403.465546 
	C2358.440430,417.495697 2356.087402,432.717957 2356.002197,449.225159 
z"/>
<path fill="#000000" opacity="1.000000" stroke="none" 
	d="
M2228.605957,127.402908 
	C2228.962402,192.899628 2228.990967,258.051147 2228.997314,323.202667 
	C2229.006836,417.514771 2229.000000,511.826874 2229.000000,606.138977 
	C2229.000000,607.936829 2229.000000,609.734680 2229.000000,611.764099 
	C2196.611816,611.764099 2164.544922,611.764099 2132.130859,611.764099 
	C2132.130859,606.966125 2132.130859,602.227722 2132.130859,598.374329 
	C2119.426025,602.401611 2106.914062,606.885803 2094.106445,610.239807 
	C2085.994629,612.364075 2077.471924,613.121216 2069.078613,613.908997 
	C2061.034912,614.663879 2052.891846,615.268433 2044.842896,614.882690 
	C2024.063843,613.886841 2003.883667,610.020935 1984.409424,602.182373 
	C1959.568970,592.183838 1938.390747,577.186890 1920.841309,557.190491 
	C1907.886597,542.429443 1897.790039,525.715637 1891.092041,507.187103 
	C1884.660278,489.395111 1881.466309,471.061676 1880.750732,452.007782 
	C1879.922607,429.958282 1882.439331,408.520386 1889.253540,387.758545 
	C1895.520264,368.665619 1905.627441,351.456635 1918.530151,335.896484 
	C1934.412354,316.742950 1953.786865,302.358856 1976.291382,291.942291 
	C1991.588135,284.861908 2007.380371,279.419891 2024.241943,278.092163 
	C2038.534424,276.966766 2052.958984,275.473053 2067.204590,276.277344 
	C2089.030762,277.509644 2110.234619,282.549561 2129.989014,292.497559 
	C2130.399902,292.704529 2130.864502,292.805878 2131.706543,293.094482 
	C2131.706543,237.801102 2131.706543,182.763351 2131.706543,127.057709 
	C2164.130859,127.057709 2196.199463,127.057709 2228.605957,127.402908 
M1973.035522,439.831818 
	C1972.918335,454.246552 1974.692993,468.398621 1980.079712,481.832550 
	C1984.978149,494.048950 1991.943604,505.211700 2002.218872,513.500000 
	C2017.595581,525.903198 2035.247681,531.881104 2055.391846,531.171631 
	C2072.981201,530.552185 2088.435791,524.989868 2101.571289,513.748230 
	C2121.079102,497.053040 2129.747314,474.894287 2130.838623,449.732178 
	C2131.197510,441.452698 2130.240723,432.996155 2128.878418,424.787659 
	C2126.236328,408.865295 2119.410889,394.658356 2108.302979,382.905640 
	C2089.542480,363.056000 2066.006104,355.945190 2039.516602,360.192383 
	C2013.912231,364.297638 1995.046631,378.844727 1983.101440,401.834534 
	C1977.096313,413.392059 1974.232178,425.982452 1973.035522,439.831818 
z"/>
<path fill="#000000" opacity="1.000000" stroke="none" 
	d="
M1145.980225,509.045319 
	C1140.453735,495.792328 1137.332886,482.346588 1136.005615,468.461639 
	C1135.304810,461.131378 1134.133789,453.794342 1134.145508,446.461914 
	C1134.158081,438.627167 1134.799805,430.708344 1136.092163,422.980988 
	C1137.949097,411.876434 1140.305054,400.826660 1143.058716,389.907532 
	C1147.202026,373.478607 1155.324585,358.805023 1165.369629,345.378784 
	C1172.133667,336.337982 1179.656494,327.693817 1187.837891,319.922821 
	C1201.521240,306.925842 1217.287842,296.643433 1235.062134,290.111725 
	C1247.672852,285.477570 1260.526245,280.978058 1273.661499,278.428192 
	C1290.640015,275.132263 1307.978638,275.222504 1325.341064,276.827301 
	C1340.927124,278.267853 1355.949097,281.410767 1370.587646,286.877136 
	C1388.734985,293.653717 1405.206543,303.119629 1420.132446,315.529755 
	C1438.510132,330.809814 1452.326294,349.472870 1462.391113,370.956848 
	C1468.542725,384.087982 1473.388916,397.774384 1474.919556,412.292236 
	C1476.311890,425.498108 1478.197754,438.816895 1477.769653,452.017914 
	C1476.606201,487.904053 1466.200073,520.825989 1443.952759,549.668457 
	C1426.745972,571.976074 1405.295776,588.599976 1379.682495,600.012939 
	C1364.442383,606.803711 1348.598755,611.581970 1331.911743,612.947021 
	C1320.267944,613.899475 1308.536987,615.314575 1296.924683,614.782471 
	C1276.846313,613.862244 1257.299927,609.830505 1238.457520,602.224121 
	C1213.627075,592.200623 1192.429199,577.226074 1174.875122,557.220276 
	C1163.114990,543.817810 1153.778320,528.724182 1147.016968,512.136597 
	C1146.655151,511.249054 1146.337402,510.343567 1145.980225,509.045319 
M1374.040161,490.548798 
	C1379.781006,479.912323 1382.683594,468.559174 1384.189941,456.537323 
	C1385.912720,442.788086 1384.782715,429.468689 1380.931274,416.368103 
	C1374.100952,393.135040 1360.283081,375.393555 1337.843628,365.541351 
	C1325.094971,359.943939 1311.645630,357.986450 1297.439209,359.803680 
	C1281.690186,361.818207 1267.781982,367.391602 1255.928833,377.672119 
	C1235.990601,394.964966 1228.041504,417.896545 1227.155029,443.461914 
	C1226.692749,456.795166 1229.098999,470.028961 1234.249512,482.426239 
	C1239.224731,494.401825 1246.146240,505.405243 1256.328003,513.606506 
	C1272.055054,526.274597 1290.111816,532.125732 1310.563477,531.119690 
	C1329.024536,530.211487 1345.068848,523.967468 1358.135376,511.109436 
	C1364.117065,505.223297 1368.734985,497.951385 1374.040161,490.548798 
z"/>
<path fill="#000000" opacity="1.000000" stroke="none" 
	d="
M1552.745117,560.245483 
	C1537.898071,544.513977 1526.892944,526.773743 1519.443237,506.872803 
	C1512.742920,488.973877 1509.515503,470.508636 1508.771973,451.306061 
	C1507.918579,429.272034 1510.384766,407.841003 1517.169922,387.045776 
	C1522.782593,369.843994 1531.662476,354.201294 1542.672607,339.704376 
	C1559.421631,317.650909 1580.800903,301.580658 1605.712646,290.132141 
	C1620.358643,283.401337 1635.685181,278.300232 1651.905518,277.078430 
	C1665.869873,276.026550 1679.924438,274.692688 1693.870239,275.240448 
	C1712.304932,275.964539 1730.286011,279.982971 1747.569336,286.886017 
	C1763.082275,293.081909 1777.568970,301.108459 1790.632202,311.376801 
	C1805.917236,323.391632 1818.334839,338.098114 1828.403809,354.803955 
	C1836.591309,368.388336 1842.683594,382.873077 1846.451660,398.176575 
	C1848.806274,407.739716 1849.825806,417.670593 1850.906006,427.495697 
	C1851.715454,434.859070 1852.186646,442.336121 1851.911865,449.729279 
	C1850.558716,486.147766 1840.442139,519.536194 1817.830688,548.783081 
	C1796.801880,575.982849 1769.893555,594.497864 1737.412354,605.169922 
	C1723.824707,609.634338 1709.926636,612.586670 1695.557495,613.019043 
	C1687.972046,613.247253 1680.363159,614.257568 1672.815552,613.886658 
	C1652.040649,612.865784 1631.822754,609.131165 1612.403442,601.148682 
	C1589.645264,591.793823 1569.612427,578.704773 1552.745117,560.245483 
M1659.781738,527.968323 
	C1671.607544,530.552917 1683.527832,531.030701 1695.447021,528.961426 
	C1713.505249,525.826233 1728.301758,516.603821 1739.617432,502.558075 
	C1750.529663,489.013062 1756.341797,473.203796 1758.214355,455.645477 
	C1759.682007,441.884796 1758.758057,428.593018 1754.943726,415.480804 
	C1748.333008,392.755646 1734.954102,375.230347 1713.268921,365.147400 
	C1697.741577,357.927643 1681.374268,356.349365 1664.345581,359.873932 
	C1646.524658,363.562500 1631.721558,372.302124 1620.590332,386.177551 
	C1603.665771,407.274811 1598.645630,432.165161 1602.196411,458.528046 
	C1604.408813,474.953522 1610.566162,490.012054 1621.425293,503.173920 
	C1631.538086,515.431274 1644.244141,522.915344 1659.781738,527.968323 
z"/>
<path fill="#000000" opacity="1.000000" stroke="none" 
	d="
M926.996216,362.000000 
	C912.187012,362.000000 897.877258,362.000000 883.284302,362.000000 
	C883.284302,335.039703 883.284302,308.301910 883.284302,281.163239 
	C902.630554,281.163239 922.038513,281.163239 942.000000,281.163239 
	C942.000000,269.005371 941.679016,257.228241 942.065552,245.474396 
	C942.924622,219.351913 948.457947,194.463623 964.077698,172.870422 
	C977.711426,154.022751 996.289673,142.011154 1018.680054,136.065704 
	C1030.487305,132.930496 1042.520264,131.388306 1054.823486,130.819687 
	C1079.781860,129.666107 1104.228394,131.780853 1128.174561,139.009125 
	C1129.825928,139.507599 1131.379883,140.328751 1133.238403,141.108627 
	C1122.399292,167.705109 1111.731201,193.881836 1101.268555,219.554352 
	C1093.205444,217.947357 1085.874268,216.217346 1078.453857,215.061035 
	C1060.739258,212.300598 1041.855225,225.989670 1040.213257,243.768082 
	C1039.094360,255.881775 1039.999390,268.182404 1039.999390,280.807861 
	C1065.602539,280.807861 1092.009155,280.807861 1118.706909,280.807861 
	C1118.706909,307.942535 1118.706909,334.680389 1118.706909,361.818787 
	C1092.386353,361.818787 1065.979736,361.818787 1039.179443,361.818787 
	C1039.179443,444.952209 1039.179443,527.687988 1039.179443,610.711548 
	C1006.714722,610.711548 974.643860,610.711548 942.176270,610.711548 
	C942.176270,528.044739 942.176270,445.308990 942.176270,362.000000 
	C937.030640,362.000000 932.263184,362.000000 926.996216,362.000000 
z"/>
<path fill="#010101" opacity="1.000000" stroke="none" 
	d="
M305.348328,77.231255 
	C314.717316,70.232140 323.377899,62.788399 332.936310,56.770802 
	C354.830597,42.986969 378.203918,32.640560 403.912079,27.858913 
	C418.903961,25.070465 433.907959,22.469912 449.134888,23.106611 
	C479.433960,24.373541 508.019073,31.805489 534.311951,47.584026 
	C548.960938,56.374954 562.811646,66.231735 574.055298,78.925949 
	C584.556824,90.782280 593.311279,104.175308 603.015747,116.752243 
	C609.377625,124.997185 615.410645,133.645981 622.741455,140.960846 
	C636.522766,154.712112 650.669373,168.182571 665.540039,180.731812 
	C679.513245,192.523712 694.694702,202.874924 709.200928,214.046509 
	C723.772034,225.268097 738.674072,236.245361 750.655884,250.315964 
	C767.191406,269.734283 778.503113,291.957245 784.025452,317.009003 
	C787.039551,330.681885 788.642273,344.550903 787.868958,358.462921 
	C786.580322,381.644257 782.115540,404.215088 772.790894,425.698578 
	C762.082581,450.369812 747.634888,472.405182 727.234314,490.074585 
	C718.062927,498.018097 708.122192,505.114777 698.232056,512.177795 
	C681.777222,523.929077 668.557739,538.664551 658.136597,555.792725 
	C650.559998,568.245483 644.051208,581.345398 636.978027,594.107849 
	C629.528931,607.548584 621.681885,620.633789 611.415833,632.305359 
	C597.223572,648.440491 579.655457,659.388062 559.963013,666.766418 
	C546.341858,671.870056 532.176697,676.172363 517.875793,678.613342 
	C505.590820,680.710266 492.729095,680.428406 480.196320,679.776672 
	C468.917450,679.190186 457.552795,677.454773 446.556274,674.838135 
	C425.801025,669.899475 406.628082,660.886108 388.356842,649.895691 
	C369.559296,638.588806 353.439453,624.100952 338.049774,608.633545 
	C325.285797,595.805054 312.702911,582.711670 299.057495,570.867371 
	C283.853210,557.669922 268.201294,544.770386 251.542877,533.520081 
	C229.710464,518.775330 206.568222,505.984009 184.270157,491.907684 
	C176.078476,486.736481 168.424866,480.609436 160.993027,474.362518 
	C150.095947,465.202850 141.077682,454.342010 133.577972,442.182678 
	C125.752815,429.495667 119.985962,415.894226 116.150093,401.606293 
	C112.812126,389.172974 110.007874,376.509888 108.219627,363.772583 
	C106.600357,352.238861 105.674194,340.423157 106.192734,328.809937 
	C107.540970,298.614960 114.807549,269.791016 129.444458,243.130234 
	C137.348129,228.733871 147.121445,215.693466 157.985626,203.310699 
	C177.239319,181.365707 200.619812,164.607330 224.159256,147.812149 
	C236.881729,138.734802 248.664627,128.277557 260.438110,117.948929 
	C275.535950,104.703934 290.197876,90.962067 305.348328,77.231255 
M365.082764,75.561226 
	C345.307037,85.937538 328.359344,100.128044 311.676392,114.752373 
	C289.393372,134.285675 267.113708,153.839661 244.318542,172.765594 
	C230.764923,184.018646 215.552383,193.306503 202.247726,204.820663 
	C154.742767,245.932648 131.395126,297.025818 140.036758,360.721405 
	C142.529633,379.096008 146.770004,397.008026 154.426422,413.957672 
	C165.287872,438.002563 184.155151,454.514648 206.119080,467.934906 
	C223.567993,478.596405 241.312668,488.777985 258.674591,499.576874 
	C294.558197,521.895935 325.552612,550.174011 355.214264,579.975952 
	C372.640076,597.484192 390.280243,614.589478 412.254303,626.549072 
	C448.327911,646.182495 485.999695,654.644165 526.670044,644.019348 
	C557.564636,635.948547 583.617371,620.902039 600.434265,592.721802 
	C605.963135,583.456848 611.146179,573.959717 616.005615,564.325745 
	C633.088257,530.459045 655.573059,501.331116 687.530823,480.021118 
	C696.077209,474.322235 704.382263,467.892914 711.568909,460.589447 
	C738.151611,433.574860 752.470337,400.764038 755.300293,363.021332 
	C758.431702,321.257996 744.848206,285.807343 712.982361,258.515198 
	C693.658325,241.964752 672.813965,227.192215 652.692200,211.569931 
	C619.461121,185.769836 589.377258,156.999496 566.978027,120.930328 
	C564.356140,116.708260 561.165649,112.792313 557.909607,109.018379 
	C530.315125,77.034386 495.946594,58.172810 453.327118,55.791241 
	C422.358856,54.060745 393.251129,61.179188 365.082764,75.561226 
z"/>
<path fill="#000000" opacity="1.000000" stroke="none" 
	d="
M2984.000000,323.000000 
	C2984.000000,336.143433 2984.000000,348.786865 2984.000000,361.829529 
	C2971.045654,361.829529 2958.302734,361.829529 2944.607910,361.829529 
	C2944.607910,446.043884 2944.607910,529.862061 2944.607910,613.398315 
	C2911.975098,613.398315 2880.292236,613.398315 2848.215576,613.398315 
	C2848.215576,529.416931 2848.215576,446.015045 2848.215576,362.213562 
	C2831.088135,362.213562 2814.346436,362.213562 2797.303711,362.213562 
	C2797.303711,335.078735 2797.303711,308.340942 2797.303711,281.201965 
	C2813.923584,281.201965 2830.665527,281.201965 2847.803223,281.201965 
	C2847.803223,249.734421 2847.803223,218.661957 2847.803223,187.295609 
	C2880.270508,187.295609 2912.341309,187.295609 2944.812012,187.295609 
	C2944.812012,218.274414 2944.812012,249.346878 2944.812012,280.818024 
	C2957.943115,280.818024 2970.685547,280.818024 2984.000000,280.818024 
	C2984.000000,294.973663 2984.000000,308.736847 2984.000000,323.000000 
z"/>
<path fill="#000000" opacity="1.000000" stroke="none" 
	d="
M2757.000000,472.000000 
	C2757.000000,518.475159 2757.000000,564.450317 2757.000000,610.712524 
	C2724.712646,610.712524 2692.641846,610.712524 2660.285156,610.712524 
	C2660.285156,501.042786 2660.285156,391.308899 2660.285156,281.287415 
	C2692.287354,281.287415 2724.358398,281.287415 2757.000000,281.287415 
	C2757.000000,344.648193 2757.000000,408.074097 2757.000000,472.000000 
z"/>
<path fill="#000000" opacity="1.000000" stroke="none" 
	d="
M2671.239258,138.260864 
	C2681.027100,130.425262 2691.993164,126.666512 2704.039551,126.025284 
	C2718.174072,125.272896 2731.469482,127.885986 2743.076660,136.564407 
	C2756.845703,146.859055 2765.141602,160.110336 2767.183105,177.589508 
	C2768.670166,190.325546 2766.807861,202.213318 2760.853027,213.181381 
	C2752.155273,229.200790 2738.821533,239.707703 2720.533691,242.967102 
	C2703.560059,245.992264 2687.602295,243.765778 2673.431152,233.060120 
	C2660.423096,223.233307 2652.541260,210.500244 2649.902344,194.271851 
	C2647.987305,182.496796 2649.329346,171.292282 2654.066650,160.534119 
	C2657.875000,151.885056 2662.872070,143.959000 2671.239258,138.260864 
z"/>
<path fill="#FFFFFF" opacity="1.000000" stroke="none" 
	d="
M2356.000977,448.755127 
	C2356.087402,432.717957 2358.440430,417.495697 2365.301758,403.465546 
	C2376.935791,379.675812 2396.027100,364.564209 2422.130127,360.236603 
	C2449.577637,355.686188 2473.924561,363.312561 2492.725830,384.448639 
	C2504.913818,398.150146 2511.050781,414.677551 2513.184082,433.080414 
	C2515.485840,452.934967 2512.818848,471.824188 2503.750244,489.329529 
	C2492.352539,511.331207 2474.573975,525.884705 2449.497559,529.963562 
	C2422.505859,534.354004 2398.686035,527.666443 2379.482178,507.813293 
	C2367.656494,495.587738 2360.914062,480.465790 2358.025391,463.700806 
	C2357.198242,458.901886 2356.668457,454.051788 2356.000977,448.755127 
z"/>
<path fill="#FFFFFF" opacity="1.000000" stroke="none" 
	d="
M1973.260132,439.421814 
	C1974.232178,425.982452 1977.096313,413.392059 1983.101440,401.834534 
	C1995.046631,378.844727 2013.912231,364.297638 2039.516602,360.192383 
	C2066.006104,355.945190 2089.542480,363.056000 2108.302979,382.905640 
	C2119.410889,394.658356 2126.236328,408.865295 2128.878418,424.787659 
	C2130.240723,432.996155 2131.197510,441.452698 2130.838623,449.732178 
	C2129.747314,474.894287 2121.079102,497.053040 2101.571289,513.748230 
	C2088.435791,524.989868 2072.981201,530.552185 2055.391846,531.171631 
	C2035.247681,531.881104 2017.595581,525.903198 2002.218872,513.500000 
	C1991.943604,505.211700 1984.978149,494.048950 1980.079712,481.832550 
	C1974.692993,468.398621 1972.918335,454.246552 1973.260132,439.421814 
z"/>
<path fill="#FFFFFF" opacity="1.000000" stroke="none" 
	d="
M1374.005859,490.928375 
	C1368.734985,497.951385 1364.117065,505.223297 1358.135376,511.109436 
	C1345.068848,523.967468 1329.024536,530.211487 1310.563477,531.119690 
	C1290.111816,532.125732 1272.055054,526.274597 1256.328003,513.606506 
	C1246.146240,505.405243 1239.224731,494.401825 1234.249512,482.426239 
	C1229.098999,470.028961 1226.692749,456.795166 1227.155029,443.461914 
	C1228.041504,417.896545 1235.990601,394.964966 1255.928833,377.672119 
	C1267.781982,367.391602 1281.690186,361.818207 1297.439209,359.803680 
	C1311.645630,357.986450 1325.094971,359.943939 1337.843628,365.541351 
	C1360.283081,375.393555 1374.100952,393.135040 1380.931274,416.368103 
	C1384.782715,429.468689 1385.912720,442.788086 1384.189941,456.537323 
	C1382.683594,468.559174 1379.781006,479.912323 1374.005859,490.928375 
z"/>
<path fill="#FFFFFF" opacity="1.000000" stroke="none" 
	d="
M1659.411621,527.760864 
	C1644.244141,522.915344 1631.538086,515.431274 1621.425293,503.173920 
	C1610.566162,490.012054 1604.408813,474.953522 1602.196411,458.528046 
	C1598.645630,432.165161 1603.665771,407.274811 1620.590332,386.177551 
	C1631.721558,372.302124 1646.524658,363.562500 1664.345581,359.873932 
	C1681.374268,356.349365 1697.741577,357.927643 1713.268921,365.147400 
	C1734.954102,375.230347 1748.333008,392.755646 1754.943726,415.480804 
	C1758.758057,428.593018 1759.682007,441.884796 1758.214355,455.645477 
	C1756.341797,473.203796 1750.529663,489.013062 1739.617432,502.558075 
	C1728.301758,516.603821 1713.505249,525.826233 1695.447021,528.961426 
	C1683.527832,531.030701 1671.607544,530.552917 1659.411621,527.760864 
z"/>
<path fill="#FFFFFF" opacity="1.000000" stroke="none" 
	d="
M365.396057,75.362823 
	C393.251129,61.179188 422.358856,54.060745 453.327118,55.791241 
	C495.946594,58.172810 530.315125,77.034386 557.909607,109.018379 
	C561.165649,112.792313 564.356140,116.708260 566.978027,120.930328 
	C589.377258,156.999496 619.461121,185.769836 652.692200,211.569931 
	C672.813965,227.192215 693.658325,241.964752 712.982361,258.515198 
	C744.848206,285.807343 758.431702,321.257996 755.300293,363.021332 
	C752.470337,400.764038 738.151611,433.574860 711.568909,460.589447 
	C704.382263,467.892914 696.077209,474.322235 687.530823,480.021118 
	C655.573059,501.331116 633.088257,530.459045 616.005615,564.325745 
	C611.146179,573.959717 605.963135,583.456848 600.434265,592.721802 
	C583.617371,620.902039 557.564636,635.948547 526.670044,644.019348 
	C485.999695,654.644165 448.327911,646.182495 412.254303,626.549072 
	C390.280243,614.589478 372.640076,597.484192 355.214264,579.975952 
	C325.552612,550.174011 294.558197,521.895935 258.674591,499.576874 
	C241.312668,488.777985 223.567993,478.596405 206.119080,467.934906 
	C184.155151,454.514648 165.287872,438.002563 154.426422,413.957672 
	C146.770004,397.008026 142.529633,379.096008 140.036758,360.721405 
	C131.395126,297.025818 154.742767,245.932648 202.247726,204.820663 
	C215.552383,193.306503 230.764923,184.018646 244.318542,172.765594 
	C267.113708,153.839661 289.393372,134.285675 311.676392,114.752373 
	C328.359344,100.128044 345.307037,85.937538 365.396057,75.362823 
M410.849457,227.205658 
	C410.057587,227.461624 409.267548,227.723450 408.473572,227.972687 
	C346.367310,247.468857 307.978394,310.249969 319.190399,373.987640 
	C331.657959,444.862915 397.376709,491.450897 468.874451,480.098663 
	C538.013794,469.120911 586.572327,402.148590 575.774658,332.660950 
	C563.705872,254.992798 487.547668,205.978485 410.849457,227.205658 
z"/>
<path fill="#FDBD20" opacity="1.000000" stroke="none" 
	d="
M411.245667,227.116547 
	C487.547668,205.978485 563.705872,254.992798 575.774658,332.660950 
	C586.572327,402.148590 538.013794,469.120911 468.874451,480.098663 
	C397.376709,491.450897 331.657959,444.862915 319.190399,373.987640 
	C307.978394,310.249969 346.367310,247.468857 408.473572,227.972687 
	C409.267548,227.723450 410.057587,227.461624 411.245667,227.116547 
M344.107727,365.144196 
	C346.623199,375.278961 348.761597,385.532867 351.901611,395.470306 
	C352.757660,398.179535 356.314301,401.170074 359.173615,401.895691 
	C367.255981,403.946747 372.951782,396.371368 369.782410,388.091217 
	C363.373138,371.346588 361.168640,354.114105 365.174988,336.656464 
	C367.306824,327.366943 371.223358,318.431915 374.892212,309.567810 
	C377.766174,302.624298 375.530365,295.937714 368.963257,294.271545 
	C364.453766,293.127411 360.036438,295.472809 357.222992,300.604706 
	C346.338409,320.458679 342.412079,341.759521 344.107727,365.144196 
M388.112061,266.578796 
	C385.710480,268.357971 383.217865,270.028015 380.926514,271.939331 
	C376.346252,275.760010 375.597687,281.186646 378.880096,285.630829 
	C381.956757,289.796600 387.438507,290.916962 392.197021,287.946381 
	C396.693237,285.139526 401.048218,282.073700 405.259796,278.853027 
	C409.218109,275.826080 410.073608,270.416260 407.626038,266.297455 
	C405.045715,261.955109 399.706909,260.145111 395.087891,262.293854 
	C392.845978,263.336792 390.825623,264.856110 388.112061,266.578796 
z"/>
<path fill="#FFFEFC" opacity="1.000000" stroke="none" 
	d="
M344.084229,364.677399 
	C342.412079,341.759521 346.338409,320.458679 357.222992,300.604706 
	C360.036438,295.472809 364.453766,293.127411 368.963257,294.271545 
	C375.530365,295.937714 377.766174,302.624298 374.892212,309.567810 
	C371.223358,318.431915 367.306824,327.366943 365.174988,336.656464 
	C361.168640,354.114105 363.373138,371.346588 369.782410,388.091217 
	C372.951782,396.371368 367.255981,403.946747 359.173615,401.895691 
	C356.314301,401.170074 352.757660,398.179535 351.901611,395.470306 
	C348.761597,385.532867 346.623199,375.278961 344.084229,364.677399 
z"/>
<path fill="#FFFEFB" opacity="1.000000" stroke="none" 
	d="
M388.408508,266.369263 
	C390.825623,264.856110 392.845978,263.336792 395.087891,262.293854 
	C399.706909,260.145111 405.045715,261.955109 407.626038,266.297455 
	C410.073608,270.416260 409.218109,275.826080 405.259796,278.853027 
	C401.048218,282.073700 396.693237,285.139526 392.197021,287.946381 
	C387.438507,290.916962 381.956757,289.796600 378.880096,285.630829 
	C375.597687,281.186646 376.346252,275.760010 380.926514,271.939331 
	C383.217865,270.028015 385.710480,268.357971 388.408508,266.369263 
z"/>
</svg>