<svg width="24" height="24" viewBox="0 0 24 24" fill="none" xmlns="http://www.w3.org/2000/svg">
<path fill-rule="evenodd" clip-rule="evenodd" d="M11.469 1.71888C11.5387 1.64904 11.6214 1.59362 11.7126 1.55581C11.8037 1.518 11.9014 1.49854 12 1.49854C12.0987 1.49854 12.1963 1.518 12.2875 1.55581C12.3786 1.59362 12.4613 1.64904 12.531 1.71888L21.531 10.7189C21.6006 10.7887 21.6558 10.8715 21.6933 10.9626C21.7309 11.0537 21.7502 11.1513 21.75 11.2499V21.7499C21.75 21.9488 21.671 22.1396 21.5303 22.2802C21.3897 22.4209 21.1989 22.4999 21 22.4999H14.25C14.0511 22.4999 13.8603 22.4209 13.7197 22.2802C13.579 22.1396 13.5 21.9488 13.5 21.7499V15.7499H10.5V21.7499C10.5 21.9488 10.421 22.1396 10.2803 22.2802C10.1397 22.4209 9.94891 22.4999 9.75 22.4999H3C2.80109 22.4999 2.61032 22.4209 2.46967 22.2802C2.32902 22.1396 2.25 21.9488 2.25 21.7499V11.2499C2.24983 11.1513 2.26908 11.0537 2.30665 10.9626C2.34423 10.8715 2.3994 10.7887 2.469 10.7189L11.469 1.71888ZM3.75 11.5604V20.9999H9V14.9999C9 14.801 9.07902 14.6102 9.21967 14.4696C9.36032 14.3289 9.55109 14.2499 9.75 14.2499H14.25C14.4489 14.2499 14.6397 14.3289 14.7803 14.4696C14.921 14.6102 15 14.801 15 14.9999V20.9999H20.25V11.5604L12 3.31038L3.75 11.5604Z" fill="black"/>
<path fill-rule="evenodd" clip-rule="evenodd" d="M19.5 3.75V9L16.5 6V3.75C16.5 3.55109 16.579 3.36032 16.7197 3.21967C16.8603 3.07902 17.0511 3 17.25 3H18.75C18.9489 3 19.1397 3.07902 19.2803 3.21967C19.421 3.36032 19.5 3.55109 19.5 3.75Z" fill="black"/>
</svg>
