<svg width="24" height="24" viewBox="0 0 24 24" fill="none" xmlns="http://www.w3.org/2000/svg">
<g clip-path="url(#clip0_3817_1161)">
<path fill-rule="evenodd" clip-rule="evenodd" d="M18.2246 0.198742C18.2942 0.128897 18.377 0.0734827 18.4681 0.0356731C18.5592 -0.00213661 18.6569 -0.0215988 18.7556 -0.0215988C18.8542 -0.0215988 18.9519 -0.00213661 19.043 0.0356731C19.1341 0.0734827 19.2169 0.128897 19.2866 0.198742L23.7866 4.69874C23.8564 4.76841 23.9118 4.85117 23.9496 4.94229C23.9874 5.03341 24.0069 5.13109 24.0069 5.22974C24.0069 5.32839 23.9874 5.42607 23.9496 5.51719C23.9118 5.60831 23.8564 5.69107 23.7866 5.76074L8.78657 20.7607C8.71459 20.8322 8.62886 20.8883 8.53457 20.9257L1.03457 23.9257C0.898273 23.9803 0.748962 23.9937 0.605148 23.9642C0.461333 23.9347 0.329339 23.8636 0.22553 23.7598C0.12172 23.656 0.0506596 23.524 0.0211584 23.3802C-0.00834277 23.2363 0.00501248 23.087 0.0595685 22.9507L3.05957 15.4507C3.09696 15.3564 3.15309 15.2707 3.22457 15.1987L18.2246 0.198742ZM16.8161 3.72974L20.2556 7.16924L22.1951 5.22974L18.7556 1.79024L16.8161 3.72974ZM19.1951 8.22974L15.7556 4.79024L6.00557 14.5402V14.9797H6.75557C6.95448 14.9797 7.14525 15.0588 7.2859 15.1994C7.42655 15.3401 7.50557 15.5308 7.50557 15.7297V16.4797H8.25557C8.45448 16.4797 8.64525 16.5588 8.7859 16.6994C8.92655 16.8401 9.00557 17.0308 9.00557 17.2297V17.9797H9.44507L19.1951 8.22974ZM4.55357 15.9922L4.39457 16.1512L2.10257 21.8827L7.83407 19.5907L7.99307 19.4317C7.85 19.3783 7.72666 19.2824 7.63954 19.157C7.55242 19.0315 7.50568 18.8825 7.50557 18.7297V17.9797H6.75557C6.55666 17.9797 6.36589 17.9007 6.22524 17.7601C6.08459 17.6194 6.00557 17.4287 6.00557 17.2297V16.4797H5.25557C5.10284 16.4796 4.95378 16.4329 4.82833 16.3458C4.70289 16.2587 4.60702 16.1353 4.55357 15.9922Z" fill="black"/>
</g>
<defs>
<clipPath id="clip0_3817_1161">
<rect width="24" height="24" fill="white"/>
</clipPath>
</defs>
</svg>
